<svg width="16" height="16" viewBox="0 0 16 16" fill="none" xmlns="http://www.w3.org/2000/svg">
<path id="edit" fill-rule="evenodd" clip-rule="evenodd" d="M4.57427 0.0314225C4.7579 -0.036452 4.96487 0.00765126 5.10356 0.144207L7.10356 2.11344C7.22356 2.23159 7.2745 2.40161 7.23884 2.56498C7.20319 2.72835 7.0858 2.86276 6.9271 2.92194C5.75684 3.35834 5.00565 3.78925 4.43346 4.36046C3.85906 4.93385 3.42845 5.68484 2.96433 6.82879C2.90197 6.9825 2.76532 7.09507 2.60065 7.12839C2.43598 7.16171 2.26533 7.11132 2.14646 6.99427L0.146459 5.02504C0.0151179 4.89572 -0.0325909 4.70537 0.022568 4.53073C0.389677 3.36844 0.81897 2.48256 1.54062 1.76107C2.25742 1.04443 3.22131 0.531532 4.57427 0.0314225ZM1.06976 4.54168L2.32916 5.78171C2.72479 4.92135 3.15245 4.2371 3.7215 3.66904C4.29155 3.09998 4.98017 2.67057 5.86434 2.28574L4.62635 1.06679C3.49867 1.50631 2.77482 1.93036 2.25311 2.45195C1.74115 2.9638 1.38962 3.60392 1.06976 4.54168ZM7.52011 3.21981C7.71538 3.02755 8.03196 3.02755 8.22722 3.21981L13.6035 8.51342C13.7988 8.70568 13.7988 9.01739 13.6035 9.20965C13.4083 9.40191 13.0917 9.40191 12.8964 9.20965L7.52011 3.91604C7.32485 3.72378 7.32485 3.41207 7.52011 3.21981ZM5.77012 4.20443C5.96538 4.01217 6.28196 4.01217 6.47722 4.20443L11.8535 9.49804C12.0488 9.6903 12.0488 10.002 11.8535 10.1943C11.6583 10.3865 11.3417 10.3865 11.1464 10.1943L5.77012 4.90065C5.57485 4.7084 5.57485 4.39668 5.77012 4.20443ZM4.27012 5.68135C4.46538 5.48909 4.78196 5.48909 4.97722 5.68135L10.3536 10.975C10.5488 11.1672 10.5488 11.4789 10.3536 11.6712C10.1583 11.8634 9.84171 11.8634 9.64645 11.6712L4.27012 6.37757C4.07486 6.18532 4.07486 5.8736 4.27012 5.68135ZM3.27012 7.40442C3.46538 7.21216 3.78196 7.21216 3.97723 7.40442L9.35355 12.698C9.54882 12.8903 9.54882 13.202 9.35355 13.3943C9.15829 13.5865 8.84171 13.5865 8.64645 13.3943L3.27012 8.10065C3.07486 7.90839 3.07486 7.59668 3.27012 7.40442ZM14.467 9.40262C14.6057 9.4684 14.7059 9.59344 14.7386 9.74157L15.2717 12.1561C15.3303 12.4218 15.1591 12.684 14.8893 12.7417C14.6195 12.7995 14.3532 12.6309 14.2945 12.3652L13.8995 10.576C13.0448 11.0247 12.4312 11.4388 11.9402 11.9184C11.4547 12.3926 11.0704 12.9491 10.6981 13.7079L12.4772 14.1857C12.7436 14.2572 12.9006 14.5279 12.828 14.7902C12.7553 15.0525 12.4805 15.2071 12.2141 15.1356L9.86844 14.5057C9.72881 14.4682 9.61253 14.373 9.54965 14.2446C9.48677 14.1163 9.48347 13.9674 9.54058 13.8365C10.0213 12.7346 10.5242 11.9146 11.2359 11.2194C11.9429 10.5288 12.8285 9.98864 14.0285 9.40479C14.1665 9.33764 14.3283 9.33683 14.467 9.40262ZM15.2792 13.0657C15.416 13.132 15.5145 13.2561 15.5469 13.4027L15.9886 15.4031C16.0257 15.5713 15.971 15.7463 15.8442 15.8648C15.7174 15.9832 15.537 16.0279 15.3684 15.9826L13.3785 15.4483C13.2375 15.4104 13.1204 15.3137 13.0579 15.1836C12.9955 15.0534 12.994 14.9029 13.0539 14.7717C13.2393 14.3652 13.444 14.0381 13.7432 13.7561C14.0373 13.4789 14.3956 13.2712 14.8447 13.0622C14.9825 12.9981 15.1425 12.9994 15.2792 13.0657Z" fill="#435060"/>
</svg>
