<svg width="15" height="27" viewBox="0 0 15 27" fill="none" xmlns="http://www.w3.org/2000/svg">
<path d="M0.478995 14.3802H3.73395V26.5645C3.73395 26.8051 3.94831 27 4.21289 27H9.7318C9.99638 27 10.2107 26.8051 10.2107 26.5645V14.4376H13.9526C14.1959 14.4376 14.4007 14.2716 14.4284 14.0519L14.9968 9.56623C15.0124 9.44283 14.9694 9.31922 14.8786 9.22662C14.7877 9.13396 14.6576 9.08091 14.5211 9.08091H10.211V6.26906C10.211 5.42146 10.7129 4.99162 11.703 4.99162C11.8441 4.99162 14.5211 4.99162 14.5211 4.99162C14.7856 4.99162 15 4.79661 15 4.55614V0.438697C15 0.198123 14.7856 0.0032168 14.5211 0.0032168H10.6373C10.6099 0.00200391 10.5491 0 10.4594 0C9.78557 0 7.44325 0.120287 5.59298 1.66799C3.54291 3.38312 3.8279 5.43665 3.89599 5.79271V9.08081H0.478938C0.214356 9.08081 0 9.27571 0 9.51629V13.9447C5.79968e-05 14.1852 0.214414 14.3802 0.478995 14.3802Z" fill="white"/>
</svg>
