<svg width="27" height="27" viewBox="0 0 27 27" fill="none" xmlns="http://www.w3.org/2000/svg">
<path d="M5.98361 9.02496L5.04381 12.5335L1.60883 12.6061C0.582278 10.7021 0 8.52356 0 6.20852C0 3.9699 0.544416 1.85883 1.50943 2.83241e-07H1.51017L4.56826 0.560671L5.90789 3.60049C5.62751 4.41793 5.47469 5.29543 5.47469 6.20852C5.47479 7.19951 5.6543 8.14899 5.98361 9.02496Z" transform="translate(0 7.2915)" fill="white"/>
<path d="M12.967 0C13.122 0.816644 13.2029 1.66003 13.2029 2.52197C13.2029 3.48848 13.1012 4.43127 12.9077 5.34067C12.2505 8.43528 10.5334 11.1375 8.15463 13.0498L6.4532 13.7719L3.75691 9.44926C5.33531 8.52356 6.56884 7.0749 7.21862 5.34067H0V0H7.32393H12.967Z" transform="translate(13.7969 10.9783)" fill="white"/>
<path d="M20.3414 7.71056C18.028 9.57013 15.0899 10.6835 11.8908 10.6835C6.74982 10.6835 2.28012 7.80996 0 3.58119L4.37478 0C5.51482 3.04267 8.44988 5.20863 11.8908 5.20863C13.3698 5.20863 14.7554 4.80879 15.9444 4.1108L20.3414 7.71056Z" transform="translate(1.6084 16.3164)" fill="white"/>
<path d="M20.607 3.10795L16.2337 6.68841C15.0032 5.91922 13.5486 5.47488 11.9902 5.47488C8.4714 5.47488 5.48144 7.74019 4.39851 10.892L0.000738288 7.29148H2.89671e-08C2.24674 2.95961 6.77282 0 11.9902 0C15.2657 0 18.269 1.1668 20.607 3.10795Z" transform="translate(1.51074)" fill="white"/>
</svg>
