<svg width="12" height="16" viewBox="0 0 12 16" fill="none" xmlns="http://www.w3.org/2000/svg">
<path id="trash" fill-rule="evenodd" clip-rule="evenodd" d="M5.99807 5.63525e-10H6.00193C6.42174 -1.90171e-07 7.05143 -5.08626e-07 7.87706 0.08766C8.15389 0.117052 8.36364 0.345609 8.36364 0.617877V1.85539C9.26089 1.97877 10.3486 2.20502 11.6261 2.61877C11.8493 2.69107 12 2.89512 12 3.12506V4.45002C12 4.67996 11.8493 4.884 11.6261 4.9563C10.5578 5.3023 9.62186 5.51729 8.81856 5.65062C7.51691 5.86667 6.57162 5.86667 6.00054 5.86667H5.99946C5.42838 5.86667 4.48309 5.86667 3.18144 5.65062C2.37814 5.51729 1.44221 5.3023 0.373942 4.9563C0.150711 4.884 0 4.67996 0 4.45002V3.12506C0 2.89512 0.150711 2.69107 0.373942 2.61877C1.65143 2.20502 2.73911 1.97877 3.63636 1.85539V0.617877C3.63636 0.345609 3.84611 0.117052 4.12294 0.08766C4.94857 -5.08626e-07 5.57826 -1.90171e-07 5.99807 5.63525e-10ZM4.72727 1.74391C5.26199 1.70841 5.68747 1.70841 5.99807 1.70841H6.00194C6.31253 1.70841 6.73801 1.70841 7.27273 1.74391V1.1048C6.74176 1.06675 6.3197 1.06667 6 1.06667C5.6803 1.06667 5.25823 1.06675 4.72727 1.1048V1.74391ZM6 2.77508C5.58812 2.77508 5.00635 2.77521 4.2407 2.8565C3.41249 2.94444 2.36281 3.12817 1.09091 3.51404V4.06104C1.95033 4.32177 2.70797 4.49011 3.36401 4.599C4.57462 4.79993 5.44732 4.8 6 4.8C6.55268 4.8 7.42538 4.79993 8.63599 4.599C9.29203 4.49011 10.0497 4.32177 10.9091 4.06104V3.51404C9.63719 3.12817 8.58751 2.94444 7.7593 2.8565C6.99365 2.77521 6.41188 2.77508 6 2.77508ZM1.09091 5.86667C1.39216 5.86667 1.63636 6.10545 1.63636 6.4V13.102C1.63636 13.44 1.93635 13.8942 2.7698 14.2957C3.56827 14.6803 4.7096 14.9333 6 14.9333C7.2904 14.9333 8.43173 14.6803 9.23021 14.2957C10.0637 13.8942 10.3636 13.44 10.3636 13.102V6.4C10.3636 6.10545 10.6078 5.86667 10.9091 5.86667C11.2103 5.86667 11.4545 6.10545 11.4545 6.4V13.102C11.4545 14.07 10.6556 14.7981 9.7123 15.2525C8.73403 15.7237 7.42081 16 6 16C4.57919 16 3.26597 15.7237 2.2877 15.2525C1.34441 14.7981 0.545455 14.07 0.545455 13.102V6.4C0.545455 6.10545 0.789663 5.86667 1.09091 5.86667ZM3.54545 6.66667C3.8467 6.66667 4.09091 6.90545 4.09091 7.2V13.102C4.09091 13.3966 3.8467 13.6354 3.54545 13.6354C3.24421 13.6354 3 13.3966 3 13.102V7.2C3 6.90545 3.24421 6.66667 3.54545 6.66667ZM8.45455 6.66667C8.75579 6.66667 9 6.90545 9 7.2V13.102C9 13.3966 8.75579 13.6354 8.45455 13.6354C8.1533 13.6354 7.90909 13.3966 7.90909 13.102V7.2C7.90909 6.90545 8.1533 6.66667 8.45455 6.66667ZM6 7.0512C6.30125 7.0512 6.54545 7.28998 6.54545 7.58453V13.6C6.54545 13.8946 6.30125 14.1333 6 14.1333C5.69875 14.1333 5.45455 13.8946 5.45455 13.6V7.58453C5.45455 7.28998 5.69875 7.0512 6 7.0512Z" fill="white"/>
</svg>
