<svg width="30" height="25" viewBox="0 0 30 25" fill="none" xmlns="http://www.w3.org/2000/svg">
<path d="M9.41252 25C20.7407 25 26.9349 15.3796 26.9349 7.04189C26.9349 6.76702 26.9349 6.49215 26.9221 6.23037C28.1226 5.34031 29.1699 4.22775 30 2.95812C28.9017 3.4555 27.7139 3.79581 26.4623 3.95288C27.7395 3.16754 28.7101 1.93717 29.1699 0.458115C27.9821 1.17801 26.6667 1.70157 25.2618 1.98953C24.1379 0.759162 22.5415 0 20.7663 0C17.3691 0 14.6105 2.82722 14.6105 6.3089C14.6105 6.80628 14.6616 7.29058 14.7765 7.74869C9.65517 7.48691 5.12133 4.97382 2.08174 1.15183C1.55811 2.08115 1.2516 3.16754 1.2516 4.31937C1.2516 6.50524 2.33716 8.44241 3.99745 9.56806C2.98851 9.54189 2.04342 9.25393 1.21328 8.78272C1.21328 8.8089 1.21328 8.83508 1.21328 8.86126C1.21328 11.9241 3.33333 14.4634 6.15581 15.0524C5.64495 15.1963 5.09579 15.2749 4.53384 15.2749C4.13793 15.2749 3.75479 15.2356 3.37165 15.1571C4.1507 17.6702 6.42401 19.4895 9.11878 19.5419C7.0115 21.2304 4.35504 22.2382 1.46871 22.2382C0.970625 22.2382 0.485313 22.212 -3.89752e-07 22.1466C2.69476 23.9529 5.9387 25 9.41252 25Z" fill="white"/>
</svg>
